<svg xmlns="http://www.w3.org/2000/svg" width="1200" height="675" viewBox="0 0 1200 675">
  <rect width="1200" height="675" fill="#151515"/>
  <rect x="0" y="0" width="1200" height="675" fill="url(#g)"/>
  <defs>
    <linearGradient id="g" x1="0" y1="0" x2="1" y2="1">
      <stop offset="0" stop-color="#1c1c1c"/>
      <stop offset="0.55" stop-color="#302318"/>
      <stop offset="1" stop-color="#6a1b1a"/>
    </linearGradient>
  </defs>
  <circle cx="250" cy="120" r="92" fill="#d6a443" opacity="0.18"/>
  <circle cx="980" cy="540" r="160" fill="#e74d3c" opacity="0.16"/>
  <path d="M155 476 C285 378 410 358 555 418 C692 475 835 450 1018 330" fill="none" stroke="#f0cf8f" stroke-width="9" opacity="0.7"/>
  <rect x="118" y="112" width="305" height="390" rx="16" fill="#f7f2e8" opacity="0.92"/>
  <rect x="148" y="150" width="245" height="28" fill="#282828" opacity="0.8"/>
  <rect x="148" y="205" width="180" height="22" fill="#8f2d25" opacity="0.75"/>
  <rect x="148" y="256" width="220" height="18" fill="#555" opacity="0.38"/>
  <rect x="148" y="292" width="196" height="18" fill="#555" opacity="0.32"/>
  <rect x="148" y="328" width="236" height="18" fill="#555" opacity="0.28"/>
  <circle cx="765" cy="265" r="92" fill="#f0cf8f" opacity="0.9"/>
  <path d="M692 445 C700 365 728 326 765 326 C804 326 833 365 840 445 Z" fill="#f0cf8f" opacity="0.86"/>
  <path d="M880 450 C888 378 912 342 948 342 C984 342 1010 378 1016 450 Z" fill="#7a2620" opacity="0.95"/>
  <circle cx="948" cy="286" r="72" fill="#7a2620" opacity="0.95"/>
  <text x="482" y="120" fill="#fff7e8" font-size="54" font-family="Microsoft YaHei, sans-serif" font-weight="700">深夜传闻之后</text>
  <text x="482" y="190" fill="#f0cf8f" font-size="34" font-family="Microsoft YaHei, sans-serif">真正被围观的，是亲密关系里的边界</text>
  <text x="482" y="565" fill="#fff" opacity="0.78" font-size="28" font-family="Microsoft YaHei, sans-serif">娱乐热点评论 · 今日头条</text>
</svg>
